<svg width="387" height="662" fill="none" xmlns="http://www.w3.org/2000/svg"><g opacity=".8"><g filter="url(#right-green__a)"><path fill-rule="evenodd" clip-rule="evenodd" d="M292.136 202.756c26.673-27.817 80.68-37.674 116.569-31.593 36.133 6.123 40.758 43.274 65.65 62.468 20.52 15.823 60.112 17.218 67.728 40.376 7.629 23.196-6.709 54.058-29.102 77.07-20.78 21.353-59.395 22.219-84.979 40.162-17.42 12.217-21.326 31.238-36.621 45.121-23.198 21.055-44.09 52.7-75.611 56.746-29.915 3.84-34.971-29.966-58.671-39.509-27.172-10.941-86.622 5.904-89.104-19.992-2.799-29.197 55.306-50.712 79.644-78.687 12.259-14.091 22.839-28.826 27.37-44.32 10.775-36.846-14.089-75.286 17.127-107.842Z" fill="url(#right-green__b)" fill-opacity=".1"/></g><g filter="url(#right-green__c)"><ellipse cx="468.503" cy="380.647" rx="68.503" ry="68.647" fill="#00FF6A" fill-opacity=".6"/></g><g filter="url(#right-green__d)"><path fill-rule="evenodd" clip-rule="evenodd" d="M399.04 182.868c38.105-7.365 87.319 17.322 112.428 44.492 25.28 27.354 6.648 61.847 15.058 93.454 6.933 26.055 37.828 51.498 30.007 75.9-7.833 24.44-37.882 41.956-69.669 47.848-29.494 5.466-60.965-17.454-92.261-17.837-21.308-.261-35.876 13.555-56.484 16.015-31.254 3.731-67.027 17.899-94.725 2.036-26.286-15.054-10.011-46.961-23.269-69.613-15.199-25.97-72.978-48.037-59.397-71.626 15.313-26.595 74.822-9.332 111.152-18.262 18.298-4.497 35.638-10.572 48.587-21 30.792-24.798 33.977-72.788 78.573-81.407Z" fill="url(#right-green__e)" fill-opacity=".1"/></g><g filter="url(#right-green__f)"><ellipse cx="298.503" cy="357.229" rx="68.503" ry="68.647" fill="#00D443" fill-opacity=".4"/></g><g filter="url(#right-green__g)"><ellipse cx="387.372" cy="289.428" rx="68.503" ry="68.647" fill="url(#right-green__h)"/></g><g filter="url(#right-green__i)"><ellipse cx="387.503" cy="289.647" rx="68.503" ry="68.647" fill="url(#right-green__j)"/></g></g><defs><filter id="right-green__a" x=".124" y="1.664" width="711.798" height="659.517" filterUnits="userSpaceOnUse" color-interpolation-filters="sRGB"><feFlood flood-opacity="0" result="BackgroundImageFix"/><feBlend in="SourceGraphic" in2="BackgroundImageFix" result="shape"/><feGaussianBlur stdDeviation="83.886" result="effect1_foregroundBlur_14_16354"/></filter><filter id="right-green__c" x="310" y="222" width="317.006" height="317.294" filterUnits="userSpaceOnUse" color-interpolation-filters="sRGB"><feFlood flood-opacity="0" result="BackgroundImageFix"/><feBlend in="SourceGraphic" in2="BackgroundImageFix" result="shape"/><feGaussianBlur stdDeviation="45" result="effect1_foregroundBlur_14_16354"/></filter><filter id="right-green__d" x="58.678" y="81.55" width="599.114" height="470.583" filterUnits="userSpaceOnUse" color-interpolation-filters="sRGB"><feFlood flood-opacity="0" result="BackgroundImageFix"/><feBlend in="SourceGraphic" in2="BackgroundImageFix" result="shape"/><feGaussianBlur stdDeviation="50" result="effect1_foregroundBlur_14_16354"/></filter><filter id="right-green__f" x="140" y="198.582" width="317.006" height="317.294" filterUnits="userSpaceOnUse" color-interpolation-filters="sRGB"><feFlood flood-opacity="0" result="BackgroundImageFix"/><feBlend in="SourceGraphic" in2="BackgroundImageFix" result="shape"/><feGaussianBlur stdDeviation="45" result="effect1_foregroundBlur_14_16354"/></filter><filter id="right-green__g" x="242.469" y="144.381" width="289.806" height="290.094" filterUnits="userSpaceOnUse" color-interpolation-filters="sRGB"><feFlood flood-opacity="0" result="BackgroundImageFix"/><feBlend in="SourceGraphic" in2="BackgroundImageFix" result="shape"/><feGaussianBlur stdDeviation="38.2" result="effect1_foregroundBlur_14_16354"/></filter><filter id="right-green__i" x="285.275" y="187.275" width="204.455" height="204.743" filterUnits="userSpaceOnUse" color-interpolation-filters="sRGB"><feFlood flood-opacity="0" result="BackgroundImageFix"/><feBlend in="SourceGraphic" in2="BackgroundImageFix" result="shape"/><feGaussianBlur stdDeviation="16.862" result="effect1_foregroundBlur_14_16354"/></filter><linearGradient id="right-green__b" x1="354.03" y1="300.699" x2="470.125" y2="356.776" gradientUnits="userSpaceOnUse"><stop stop-color="#68F24C"/><stop offset="1" stop-color="#2C8C7A"/></linearGradient><linearGradient id="right-green__e" x1="185.5" y1="354.082" x2="438.417" y2="270.33" gradientUnits="userSpaceOnUse"><stop offset=".217" stop-color="#07C600"/><stop offset=".995" stop-color="#005D0E"/></linearGradient><linearGradient id="right-green__h" x1="387.198" y1="220.901" x2="415.905" y2="251.216" gradientUnits="userSpaceOnUse"><stop stop-color="#05A560"/><stop offset="1" stop-color="#13BC00"/></linearGradient><linearGradient id="right-green__j" x1="387.329" y1="221.12" x2="416.036" y2="251.435" gradientUnits="userSpaceOnUse"><stop stop-color="#45FD11"/><stop offset="1" stop-color="#745E99" stop-opacity="0"/></linearGradient></defs></svg>